<svg viewBox="0 0 64 64" xmlns="http://www.w3.org/2000/svg">
  <defs>
    <linearGradient id="flowiseGradient" x1="0%" y1="0%" x2="100%" y2="100%">
      <stop offset="0%" style="stop-color:#3b82f6;stop-opacity:1" />
      <stop offset="100%" style="stop-color:#1d4ed8;stop-opacity:1" />
    </linearGradient>
  </defs>
  
  <!-- Background circle -->
  <circle cx="32" cy="32" r="30" fill="url(#flowiseGradient)"/>
  
  <!-- Flowise logo - flow chart with AI brain -->
  <g fill="white">
    <!-- Flow nodes -->
    <rect x="14" y="28" width="8" height="8" rx="2"/>
    <rect x="28" y="20" width="8" height="8" rx="2"/>
    <rect x="28" y="36" width="8" height="8" rx="2"/>
    <rect x="42" y="28" width="8" height="8" rx="2"/>
    
    <!-- AI brain in center -->
    <circle cx="32" cy="32" r="6" fill="none" stroke="white" stroke-width="1.5"/>
    <path d="M29 30 Q32 27 35 30 Q32 33 29 30" fill="white"/>
    <circle cx="30" cy="31" r="1"/>
    <circle cx="34" cy="31" r="1"/>
    
    <!-- Connections -->
    <line x1="22" y1="32" x2="26" y2="32" stroke="white" stroke-width="1.5"/>
    <line x1="32" y1="28" x2="32" y2="26" stroke="white" stroke-width="1.5"/>
    <line x1="32" y1="38" x2="32" y2="36" stroke="white" stroke-width="1.5"/>
    <line x1="38" y1="32" x2="42" y2="32" stroke="white" stroke-width="1.5"/>
  </g>
</svg>
